<?xml version="1.0" standalone="no"?>
<!DOCTYPE svg PUBLIC "-//W3C//DTD SVG 20010904//EN"
 "http://www.w3.org/TR/2001/REC-SVG-20010904/DTD/svg10.dtd">
<svg version="1.0" xmlns="http://www.w3.org/2000/svg"
 width="503.000000pt" height="503.000000pt" viewBox="0 0 503.000000 503.000000"
 preserveAspectRatio="xMidYMid meet">
<metadata>
Created by potrace 1.11, written by Peter Selinger 2001-2013
</metadata>
<g transform="translate(0.000000,503.000000) scale(0.100000,-0.100000)"
fill="#000000" stroke="none">
<path d="M3150 4884 c-6 -14 -10 -33 -10 -42 0 -27 -13 -38 -46 -45 -29 -5
-35 -2 -58 33 -15 22 -34 40 -44 40 -27 -1 -172 -108 -172 -128 0 -10 11 -33
24 -51 23 -31 24 -34 8 -62 -16 -28 -19 -29 -68 -23 -65 8 -71 0 -91 -116 -18
-105 -17 -105 55 -116 29 -4 42 -11 42 -23 0 -9 3 -25 6 -37 4 -16 -4 -26 -35
-47 -23 -15 -41 -34 -41 -41 0 -24 110 -176 127 -176 9 0 31 11 49 25 39 30
42 30 72 5 21 -18 23 -25 17 -69 -5 -35 -3 -51 6 -57 8 -4 54 -16 104 -25 104
-20 113 -16 122 49 5 37 8 41 41 47 30 6 38 3 58 -22 13 -15 23 -31 24 -34 0
-4 7 -10 16 -13 21 -8 184 100 184 122 0 9 -12 33 -26 53 l-26 38 21 29 c20
28 23 29 68 21 60 -12 66 -5 83 98 6 42 14 82 17 89 7 19 -23 41 -66 48 -34 5
-40 10 -46 37 -7 33 11 63 45 74 37 12 31 37 -25 122 -31 47 -62 83 -71 83 -9
0 -32 -10 -51 -21 -33 -21 -37 -21 -68 -6 -32 15 -33 17 -24 58 16 68 9 75
-90 93 -116 21 -120 21 -131 -10z m123 -51 l38 -6 -6 -48 -7 -48 56 -36 c30
-19 60 -35 67 -35 6 0 27 10 46 21 29 18 37 20 44 8 42 -64 51 -82 42 -88 -5
-3 -22 -16 -38 -29 -27 -21 -27 -24 -17 -61 7 -21 12 -49 12 -63 0 -31 17 -48
50 -48 41 0 53 -13 45 -51 -15 -74 -13 -72 -66 -65 -48 7 -48 7 -68 -32 -11
-21 -27 -44 -35 -51 -22 -18 -20 -30 10 -74 14 -21 24 -40 22 -41 -1 -2 -23
-15 -46 -30 l-44 -27 -31 36 -32 36 -55 -12 c-78 -16 -89 -24 -96 -70 l-7 -41
-45 7 c-70 10 -71 11 -61 56 5 22 7 45 4 50 -4 5 -32 25 -63 45 -60 39 -54 39
-117 -2 -18 -12 -23 -9 -52 36 l-32 48 40 27 c29 19 39 31 34 43 -3 9 -9 37
-12 62 -7 58 -15 67 -64 75 l-41 7 7 52 c4 28 9 54 11 57 2 4 21 3 41 -1 47
-11 53 -7 97 59 l37 54 -27 40 -26 40 23 18 c59 45 67 45 102 7 l32 -35 68 16
c68 15 68 15 79 58 11 46 15 47 81 36z"/>
<path d="M3121 4667 c-79 -16 -156 -80 -189 -157 -21 -50 -20 -157 2 -200 33
-63 63 -95 117 -124 70 -39 171 -42 237 -8 120 63 176 195 133 317 -45 128
-168 198 -300 172z m132 -71 c103 -43 152 -177 101 -278 -37 -73 -154 -123
-235 -99 -89 27 -159 132 -143 217 12 71 60 134 118 160 40 17 118 18 159 0z"/>
<path d="M3141 4553 c-92 -17 -140 -136 -88 -214 43 -65 131 -88 194 -49 97
59 93 193 -7 249 -37 21 -51 23 -99 14z m81 -76 c41 -33 46 -76 13 -115 -69
-82 -191 17 -125 101 18 22 34 30 75 36 6 0 22 -9 37 -22z"/>
<path d="M2411 4768 c-4 -13 -14 -54 -21 -91 -7 -38 -18 -70 -24 -72 -58 -15
-141 -25 -144 -17 -8 26 -94 132 -107 132 -8 0 -37 -15 -63 -33 -26 -18 -84
-59 -129 -91 -46 -32 -85 -62 -89 -67 -3 -6 17 -44 45 -84 l51 -74 -43 -64
-42 -63 -60 12 c-33 7 -74 13 -92 14 -38 0 -38 -1 -74 -202 -18 -100 -20 -129
-11 -141 7 -8 48 -20 92 -27 l79 -12 11 -57 c6 -31 14 -64 16 -73 4 -12 -15
-32 -65 -68 -39 -29 -71 -58 -71 -67 0 -19 171 -270 189 -278 9 -3 45 15 86
43 l70 50 63 -41 c69 -46 69 -46 48 -144 -10 -47 -11 -66 -2 -77 10 -13 262
-66 314 -66 28 0 37 19 51 106 l12 71 72 15 c40 9 75 14 78 12 4 -2 26 -33 50
-69 49 -72 64 -78 115 -42 17 12 74 51 125 85 52 35 97 70 101 77 5 8 -11 42
-41 88 l-49 75 40 58 c21 32 41 60 43 62 1 2 38 -4 81 -12 49 -9 85 -11 95 -5
17 8 40 108 43 183 l1 31 -84 8 c-114 10 -194 32 -268 73 -91 51 -92 50 -108
-50 -4 -22 -18 -62 -31 -88 -115 -227 -398 -276 -585 -101 -277 259 -13 718
356 618 35 -9 69 -15 76 -13 8 3 13 41 14 123 2 122 20 201 59 257 24 33 20
67 -6 73 -42 10 -233 45 -246 45 -7 0 -16 -10 -21 -22z m139 -60 c57 -10 70
-15 66 -28 -39 -116 -56 -191 -56 -252 0 -63 -2 -69 -17 -63 -38 14 -152 17
-204 5 -216 -51 -364 -264 -331 -477 46 -292 349 -456 608 -328 114 56 203
161 234 274 l11 42 34 -20 c49 -29 149 -58 228 -66 l68 -7 -6 -32 c-16 -76 -6
-72 -107 -51 -72 16 -72 16 -90 -7 -10 -13 -18 -26 -18 -30 0 -4 -14 -27 -30
-50 -70 -99 -68 -80 -16 -158 25 -38 46 -72 46 -74 0 -4 -189 -136 -195 -136
-1 0 -21 26 -43 58 -58 83 -61 85 -110 68 -23 -8 -69 -18 -102 -22 -33 -4 -63
-10 -65 -14 -3 -5 -12 -43 -20 -85 -8 -43 -16 -79 -17 -80 -5 -4 -226 40 -232
46 -4 3 1 41 9 85 8 43 15 80 15 81 0 1 -21 14 -47 30 -27 15 -68 42 -92 60
-48 36 -43 37 -139 -24 -30 -19 -57 -31 -62 -26 -8 9 -112 161 -123 179 -4 7
21 31 63 59 72 49 77 58 60 97 -6 13 -16 57 -23 98 l-13 75 -77 16 c-43 9 -81
19 -84 23 -5 5 1 43 28 182 l10 51 81 -15 c94 -17 76 -27 151 87 23 36 46 70
51 77 7 9 -4 34 -37 83 -26 39 -47 73 -47 75 0 3 118 85 186 128 8 5 29 -18
60 -63 38 -57 51 -70 68 -66 12 3 60 14 108 24 48 11 90 21 93 24 3 3 10 32
16 65 14 78 19 94 29 94 6 0 41 -5 80 -12z"/>
<path d="M1806 4449 c-62 -37 -224 -201 -251 -254 -11 -22 -23 -41 -27 -43 -5
-2 -8 -9 -8 -15 0 -7 -8 -28 -18 -47 -10 -19 -26 -62 -35 -95 -10 -33 -22 -73
-27 -89 -5 -17 -15 -88 -22 -159 -13 -138 -1 -338 27 -474 24 -114 35 -101 35
44 0 131 21 367 39 433 6 19 14 53 20 75 5 22 17 65 25 95 9 30 29 122 46 203
16 81 32 153 36 159 7 10 61 8 160 -8 40 -6 41 -6 74 45 l33 52 -31 42 c-33
46 -47 52 -76 36z"/>
<path d="M2350 4251 c-95 -31 -160 -89 -203 -179 -27 -58 -29 -70 -24 -138 7
-90 33 -146 96 -208 57 -56 133 -86 218 -86 77 0 153 30 153 60 0 27 -25 36
-57 19 -16 -8 -57 -14 -103 -14 -68 0 -82 3 -126 30 -95 59 -139 162 -115 270
32 140 175 224 316 185 61 -17 138 -87 161 -145 25 -66 16 -167 -21 -229 -25
-43 -26 -49 -12 -63 24 -24 42 -10 73 54 41 83 46 190 12 265 -55 118 -143
180 -268 185 -41 1 -86 -1 -100 -6z"/>
<path d="M3527 4193 c-12 -12 -7 -50 8 -63 24 -20 28 -50 10 -70 -17 -18 -17
-22 -1 -57 31 -67 34 -77 50 -133 36 -124 52 -237 70 -495 7 -104 15 -183 18
-175 3 8 14 60 24 115 23 126 26 457 5 550 -31 139 -82 275 -119 318 -15 17
-53 23 -65 10z"/>
<path d="M3110 3133 c-61 -9 -243 -46 -322 -65 -69 -16 -88 -24 -88 -38 0 -21
-37 -30 -129 -30 -85 0 -111 8 -111 31 0 11 -9 21 -22 23 -13 3 -52 12 -88 20
-71 17 -139 30 -240 47 -73 13 -224 7 -243 -9 -8 -7 -93 -14 -200 -18 -154 -6
-187 -10 -187 -22 0 -8 12 -82 26 -166 32 -182 34 -249 15 -709 -13 -308 -17
-347 -30 -341 -48 20 -49 19 -39 -43 25 -163 67 -252 160 -337 71 -66 72 -67
38 -60 -19 3 -44 13 -55 20 -29 21 -32 18 -40 -33 -4 -27 -18 -93 -31 -148
-40 -161 -32 -307 23 -416 l16 -32 13 34 c7 19 16 42 20 52 3 9 12 17 19 17 8
0 14 -26 18 -80 8 -95 29 -146 92 -215 61 -69 65 -73 65 -82 0 -4 9 -19 19
-33 l19 -24 13 61 c14 66 20 66 51 3 32 -63 48 -122 48 -171 0 -45 2 -49 24
-49 13 0 52 -7 87 -16 59 -15 65 -15 126 5 l65 21 47 -42 c37 -33 67 -49 131
-68 57 -17 95 -36 122 -60 l40 -35 37 35 c27 26 60 42 121 60 65 19 94 34 131
68 l48 43 64 -21 c62 -21 67 -21 127 -6 34 9 73 16 86 16 21 0 24 5 24 38 1
52 17 119 43 172 34 71 45 77 52 33 4 -21 10 -49 14 -63 7 -23 9 -22 43 30 20
30 52 73 72 95 54 59 77 117 83 207 4 50 10 78 18 78 14 0 45 -63 45 -91 0
-39 18 -9 46 78 37 116 37 226 1 363 -14 53 -27 117 -28 143 -3 49 -12 56 -44
33 -11 -7 -36 -17 -55 -21 -34 -7 -33 -5 38 61 90 82 139 180 157 309 4 28 9
58 12 68 5 19 -3 19 -53 0 -7 -3 -13 67 -17 225 -4 126 -12 296 -18 378 -13
176 -9 259 25 454 14 80 26 152 26 161 0 14 -25 17 -182 23 -108 4 -199 12
-223 20 -46 15 -128 25 -165 19z m-936 -118 c172 -49 186 -51 204 -33 10 10
18 6 40 -15 22 -23 27 -36 27 -80 0 -30 -8 -69 -19 -92 -10 -22 -27 -57 -37
-78 -10 -22 -32 -58 -50 -80 -72 -93 -148 -114 -347 -96 -129 12 -191 31 -219
67 -42 57 -83 201 -83 297 0 80 20 108 93 129 136 38 201 35 391 -19z m1137
35 c74 -14 132 -44 147 -77 35 -77 -18 -308 -87 -378 -35 -37 -46 -39 -212
-55 -228 -22 -307 13 -393 173 -73 136 -81 197 -31 254 21 25 26 26 44 16 25
-15 52 -16 83 -4 13 6 57 19 98 31 41 11 95 27 120 35 54 17 157 19 231 5z
m-1703 -173 c11 -24 37 -93 57 -153 40 -121 63 -164 99 -188 33 -21 227 -39
374 -34 137 4 178 21 227 95 17 23 33 43 37 43 4 0 29 42 54 93 67 133 79 147
120 147 46 0 66 -23 131 -152 57 -111 95 -159 158 -198 35 -22 53 -25 159 -29
141 -4 321 13 365 35 35 17 77 96 112 209 26 87 67 175 79 175 7 0 9 -31 5
-92 -3 -51 -8 -131 -11 -178 -9 -149 -73 -352 -131 -415 -62 -68 -97 -143
-123 -260 -6 -28 -13 -57 -15 -66 -4 -10 12 -28 48 -52 29 -20 59 -37 65 -37
7 0 12 -4 12 -10 0 -5 6 -10 14 -10 7 0 19 -7 26 -15 16 -20 4 -19 -61 4 -69
24 -100 41 -185 96 -133 88 -324 171 -454 198 -64 13 -66 13 -99 -12 -49 -37
-134 -36 -182 0 l-34 26 -75 -17 c-138 -30 -311 -109 -475 -215 -94 -61 -252
-121 -211 -80 8 8 19 15 24 15 6 0 12 3 14 8 2 4 20 16 41 26 21 11 50 30 63
41 24 21 25 24 14 71 -33 139 -66 212 -124 279 -40 46 -91 160 -114 260 -32
133 -54 435 -33 435 5 0 18 -19 29 -43z m1142 -1072 c149 -38 300 -107 300
-138 0 -2 -29 -18 -64 -36 -97 -47 -138 -44 -286 26 -75 36 -163 36 -240 0
-149 -70 -190 -73 -286 -26 -35 18 -64 34 -64 36 0 29 171 109 285 134 28 6
68 14 90 19 55 12 187 4 265 -15z"/>
<path d="M1893 2918 c-18 -11 -33 -24 -33 -29 0 -5 -6 -9 -14 -9 -8 0 -17 -7
-20 -16 -5 -12 -2 -15 11 -9 19 8 60 19 106 29 26 6 27 4 27 -30 0 -80 57
-121 124 -89 27 13 37 25 42 51 3 19 4 41 0 49 -8 23 17 19 84 -13 68 -33 73
-23 12 29 -32 27 -58 38 -106 47 -98 18 -195 14 -233 -10z"/>
<path d="M3031 2929 c-42 -8 -107 -45 -132 -75 -16 -20 1 -18 52 6 62 28 69
26 69 -18 0 -28 7 -45 25 -62 59 -55 150 -11 143 69 -3 36 -2 36 32 33 19 -2
53 -10 75 -18 21 -7 41 -12 42 -10 2 2 -21 22 -51 45 -54 40 -57 41 -133 40
-43 -1 -98 -5 -122 -10z"/>
<path d="M1375 3024 c-37 -37 -45 -117 -24 -244 12 -78 67 -246 103 -315 l25
-50 1 33 c0 18 -9 53 -20 77 -36 80 -54 166 -55 263 0 79 3 96 18 107 10 7 27
10 39 7 17 -4 20 -2 15 12 -4 10 -7 30 -7 44 -1 54 -63 97 -95 66z"/>
<path d="M3719 3009 c-16 -17 -29 -42 -29 -54 0 -13 -3 -31 -7 -41 -5 -14 -2
-16 16 -11 15 4 29 -1 42 -14 42 -42 15 -259 -48 -379 -7 -14 -13 -41 -12 -60
0 -33 2 -31 35 39 71 147 109 310 102 432 -4 67 -8 82 -28 99 -31 26 -37 26
-71 -11z"/>
<path d="M1454 2655 c4 -15 10 -40 13 -56 6 -32 33 -62 33 -36 0 8 -7 28 -15
43 -8 16 -15 37 -15 46 0 9 -5 20 -11 24 -9 5 -10 -1 -5 -21z"/>
<path d="M3686 2634 c-18 -52 -21 -84 -7 -68 10 11 34 105 28 111 -3 2 -12
-17 -21 -43z"/>
</g>
</svg>
